<svg width="48" height="48" viewBox="0 0 48 48" fill="none" xmlns="http://www.w3.org/2000/svg">
<g clip-path="url(#clip0_4039_11462)">
<path d="M40 35.16C42.1025 34.2392 43.8242 32.6231 44.8762 30.5831C45.9281 28.543 46.2463 26.2032 45.7772 23.9563C45.3081 21.7095 44.0804 19.6924 42.3001 18.2436C40.5198 16.7949 38.2953 16.0027 36 16H33.48C32.846 13.545 31.6377 11.2759 29.9546 9.37958C28.2715 7.48328 26.1619 6.01413 23.7995 5.09322C21.4372 4.17231 18.8898 3.82601 16.3674 4.08286C13.8449 4.33972 11.4196 5.19237 9.29139 6.57054C7.16316 7.94871 5.39293 9.81294 4.12661 12.0096C2.8603 14.2062 2.13415 16.6723 2.00803 19.2047C1.88191 21.737 2.35942 24.2631 3.40121 26.5747C4.44301 28.8863 6.01924 30.9172 8.00001 32.5M16 32H16.02M16 40H16.02M24 36H24.02M24 44H24.02M32 32H32.02M32 40H32.02" stroke="#1E1E1E" stroke-width="4" stroke-linecap="round" stroke-linejoin="round"/>
</g>
<defs>
<clipPath id="clip0_4039_11462">
<rect width="48" height="48" fill="white"/>
</clipPath>
</defs>
</svg>
