<svg width="48" height="48" viewBox="0 0 48 48" fill="none" xmlns="http://www.w3.org/2000/svg">
<g clip-path="url(#clip0_4039_11463)">
<path d="M45.22 33.9C45.8644 32.3786 46.1217 30.7213 45.9691 29.0761C45.8164 27.4309 45.2585 25.8492 44.3452 24.4724C43.432 23.0955 42.1917 21.9664 40.7355 21.1859C39.2792 20.4055 37.6522 19.998 36 20H33.48C32.6636 16.785 30.8681 13.9032 28.3421 11.7533C25.816 9.60346 22.6842 8.29186 19.38 8M10 10C6.87615 11.7273 4.41962 14.4496 3.02118 17.7338C1.62273 21.0181 1.3627 24.6756 2.28245 28.1247C3.2022 31.5737 5.2489 34.6162 8.09696 36.768C10.945 38.9199 14.4309 40.0575 18 40H36C37.1595 39.9986 38.31 39.7956 39.4 39.4M2 2L46 46" stroke="#1E1E1E" stroke-width="4" stroke-linecap="round" stroke-linejoin="round"/>
</g>
<defs>
<clipPath id="clip0_4039_11463">
<rect width="48" height="48" fill="white"/>
</clipPath>
</defs>
</svg>
